solid surface
facet normal 0 -1 0
outer loop
vertex 59 -62.001 -0.001
vertex 59 -62.001 5
vertex 28 -62.001 2
endloop
endfacet
facet normal 0 -1 0
outer loop
vertex -51 -62.001 5
vertex -20 -62.001 2
vertex -20 -62.001 5
endloop
endfacet
facet normal 0 -1 0
outer loop
vertex 28 -62.001 5
vertex 28 -62.001 2
vertex 59 -62.001 5
endloop
endfacet
facet normal 0 -1 -0
outer loop
vertex -20 -62.001 2
vertex -51 -62.001 -0.001
vertex 59 -62.001 -0.001
endloop
endfacet
facet normal 0 -1 0
outer loop
vertex 59 -62.001 -0.001
vertex 28 -62.001 2
vertex -20 -62.001 2
endloop
endfacet
facet normal -0 -1 0
outer loop
vertex -20 -62.001 2
vertex -51 -62.001 5
vertex -51 -62.001 -0.001
endloop
endfacet
facet normal 0 1 0
outer loop
vertex -51 7.001 1.999
vertex -51 7.001 5
vertex -20 7.001 5
endloop
endfacet
facet normal 0 1 0
outer loop
vertex -51 7.001 1.999
vertex -20 7.001 5
vertex -20 7.001 1.999
endloop
endfacet
facet normal 0 1 0
outer loop
vertex 28 7.001 1.999
vertex 28 7.001 5
vertex 59 7.001 5
endloop
endfacet
facet normal 0 1 0
outer loop
vertex 28 7.001 1.999
vertex 59 7.001 5
vertex 59 7.001 1.999
endloop
endfacet
facet normal 0 -0 -1
outer loop
vertex -20 7.001 1.999
vertex -20 7 1.999
vertex -51 7 1.999
endloop
endfacet
facet normal -0 0 -1
outer loop
vertex -20 7.001 1.999
vertex -51 7 1.999
vertex -51 7.001 1.999
endloop
endfacet
facet normal 0 0 1
outer loop
vertex 1.984 -0.999 8
vertex 2.221 -11.575 8
vertex 4.498 -1.002 8
endloop
endfacet
facet normal 0 -0 1
outer loop
vertex 4.261 -11.579 8
vertex 4.498 -1.002 8
vertex 2.221 -11.575 8
endloop
endfacet
facet normal 0 -0 1
outer loop
vertex 10.854 -27.404 8
vertex 14.792 -13.406 8
vertex 3.229 -49.001 8
endloop
endfacet
facet normal 0 0 1
outer loop
vertex 3.229 -49.001 8
vertex 7.926 -40.841 8
vertex 10.854 -27.404 8
endloop
endfacet
facet normal 0 -0 1
outer loop
vertex 19.033 -31.51 8
vertex 23.072 -25.991 8
vertex 10.854 -27.404 8
endloop
endfacet
facet normal 0 -0 1
outer loop
vertex 23.072 -25.991 8
vertex 26 -24.207 8
vertex 10.854 -27.404 8
endloop
endfacet
facet normal 0.294262 -0.955725 0
outer loop
vertex -16.6498 -32.768 2
vertex -12.551 -31.506 2
vertex -12.551 -31.506 8
endloop
endfacet
facet normal 0 -0 1
outer loop
vertex -19.1014 -32.768 2
vertex -16.59 -25.987 2
vertex -19.518 -24.203 2
endloop
endfacet
facet normal -0.724586 -0.689185 -0
outer loop
vertex 10.854 -27.404 8
vertex 10.854 -27.404 2
vertex 18.427 -35.366 8
endloop
endfacet
facet normal 0 0 1
outer loop
vertex -19.518 -24.203 8
vertex 4.261 -11.579 8
vertex 2.221 -11.575 8
endloop
endfacet
facet normal 0 -0 1
outer loop
vertex -19.518 -24.203 2
vertex -8.31 -13.403 2
vertex -20 7 2
endloop
endfacet
facet normal 0 -0 -1
outer loop
vertex 59 7.001 1.999
vertex 59 7 1.999
vertex 28 7 1.999
endloop
endfacet
facet normal -0 0 -1
outer loop
vertex 59 7.001 1.999
vertex 28 7 1.999
vertex 28 7.001 1.999
endloop
endfacet
facet normal 0 0 1
outer loop
vertex 18.427 -35.366 2
vertex 10.854 -27.404 2
vertex 12.369 -43.32 2
endloop
endfacet
facet normal 0 0 1
outer loop
vertex -20 -62.001 2
vertex -1.444 -40.838 2
vertex -5.887 -43.317 2
endloop
endfacet
facet normal 0 0 1
outer loop
vertex 3.229 -49.001 2
vertex -1.444 -40.838 2
vertex -20 -62.001 2
endloop
endfacet
facet normal 0.93775 0.34731 0
outer loop
vertex 23.072 -25.991 8
vertex 25.582 -32.768 2
vertex 23.072 -25.991 2
endloop
endfacet
facet normal 0 0 1
outer loop
vertex 12.369 -43.32 2
vertex 7.926 -40.841 2
vertex 28 -62.001 2
endloop
endfacet
facet normal 0.93775 0.34731 -2.10984e-07
outer loop
vertex 23.072 -25.991 8
vertex 25.899 -33.624 8
vertex 25.582 -32.768 2
endloop
endfacet
facet normal -0.93775 0.347312 0
outer loop
vertex -19.417 -33.62 2
vertex -19.417 -33.62 8
vertex -19.1014 -32.768 2
endloop
endfacet
facet normal -0 0 1
outer loop
vertex 26 -24.207 2
vertex 28 -62.001 2
vertex 28 7 2
endloop
endfacet
facet normal 1 0 0
outer loop
vertex -20 -62.001 5
vertex -20 -62.001 2
vertex -20 7 2
endloop
endfacet
facet normal 0.9955 0.0947589 0
outer loop
vertex 10.854 -27.404 8
vertex 12.369 -43.32 2
vertex 10.854 -27.404 2
endloop
endfacet
facet normal 0 -0 1
outer loop
vertex -5.887 -43.317 2
vertex -4.372 -27.4 2
vertex -11.945 -35.362 2
endloop
endfacet
facet normal 0 0 1
outer loop
vertex -20 -62.001 2
vertex -5.887 -43.317 2
vertex -11.945 -35.362 2
endloop
endfacet
facet normal 0 0 1
outer loop
vertex -20 -62.001 2
vertex -11.945 -35.362 2
vertex -16.6498 -32.768 2
endloop
endfacet
facet normal 1 0 0
outer loop
vertex 59 7 1.999
vertex 59 7.001 1.999
vertex 59 7.001 5
endloop
endfacet
facet normal -1 0 0
outer loop
vertex 28 -62.001 2
vertex 28 -62.001 5
vertex 28 7 2
endloop
endfacet
facet normal 0 0 1
outer loop
vertex -20 7 2
vertex -19.417 -33.62 2
vertex -19.518 -24.203 2
endloop
endfacet
facet normal 0 0 1
outer loop
vertex -20 -62.001 2
vertex -16.6498 -32.768 2
vertex -19.417 -33.62 2
endloop
endfacet
facet normal 0 -0 1
outer loop
vertex -20 -62.001 5
vertex -20 7.001 5
vertex -51 7.001 5
endloop
endfacet
facet normal 0 -0 1
outer loop
vertex -19.417 -33.62 2
vertex -19.1014 -32.768 2
vertex -19.518 -24.203 2
endloop
endfacet
facet normal 0 0 1
outer loop
vertex 28 -62.001 5
vertex 59 -62.001 5
vertex 28 7.001 5
endloop
endfacet
facet normal 0 0 1
outer loop
vertex 28 -62.001 2
vertex 7.926 -40.841 2
vertex 3.229 -49.001 2
endloop
endfacet
facet normal 0 0 1
outer loop
vertex -20 7 2
vertex -20 -62.001 2
vertex -19.417 -33.62 2
endloop
endfacet
facet normal 0 0 1
outer loop
vertex -11.945 -35.362 2
vertex -12.551 -31.506 2
vertex -16.6498 -32.768 2
endloop
endfacet
facet normal 0 0 1
outer loop
vertex 26 7 2
vertex -20 7 2
vertex 1.984 -0.999 2
endloop
endfacet
facet normal -1 0 0
outer loop
vertex -51 7 -0.001
vertex -51 -62.001 -0.001
vertex -51 7 1.999
endloop
endfacet
facet normal -1 0 0
outer loop
vertex -51 -62.001 5
vertex -51 7 1.999
vertex -51 -62.001 -0.001
endloop
endfacet
facet normal 1 0 0
outer loop
vertex -20 7.001 5
vertex -20 -62.001 5
vertex -20 7 2
endloop
endfacet
facet normal 1 0 0
outer loop
vertex -20 7 1.999
vertex -20 7.001 1.999
vertex -20 7 2
endloop
endfacet
facet normal 1 0 0
outer loop
vertex -20 7.001 5
vertex -20 7 2
vertex -20 7.001 1.999
endloop
endfacet
facet normal -1 0 0
outer loop
vertex -51 -62.001 5
vertex -51 7.001 5
vertex -51 7 1.999
endloop
endfacet
facet normal -1 0 0
outer loop
vertex -51 7.001 1.999
vertex -51 7 1.999
vertex -51 7.001 5
endloop
endfacet
facet normal -1 0 0
outer loop
vertex 28 7 1.999
vertex 28 7 2
vertex 28 7.001 1.999
endloop
endfacet
facet normal -1 0 -0
outer loop
vertex 28 7.001 5
vertex 28 7.001 1.999
vertex 28 7 2
endloop
endfacet
facet normal -1 -0 0
outer loop
vertex 28 7.001 5
vertex 28 7 2
vertex 28 -62.001 5
endloop
endfacet
facet normal 0 1 0
outer loop
vertex -51 7 -0.001
vertex -51 7 1.999
vertex -20 7 1.999
endloop
endfacet
facet normal 0 1 0
outer loop
vertex 59 7 -0.001
vertex -51 7 -0.001
vertex 26 7 2
endloop
endfacet
facet normal 0 1 0
outer loop
vertex 28 7 1.999
vertex 59 7 -0.001
vertex 26 7 2
endloop
endfacet
facet normal 0 1 0
outer loop
vertex -20 7 1.999
vertex -20 7 2
vertex 26 7 2
endloop
endfacet
facet normal 0 -0 1
outer loop
vertex -12.551 -31.506 8
vertex -4.372 -27.4 8
vertex -16.59 -25.987 8
endloop
endfacet
facet normal 0 0 1
outer loop
vertex 26 7 2
vertex 15.837 -9.02 2
vertex 14.792 -13.406 2
endloop
endfacet
facet normal 0 0 1
outer loop
vertex 28 7 2
vertex 26 7 2
vertex 14.792 -13.406 2
endloop
endfacet
facet normal -0 0 1
outer loop
vertex 12.369 -43.32 2
vertex 28 -62.001 2
vertex 18.427 -35.366 2
endloop
endfacet
facet normal 0 0 1
outer loop
vertex 3.229 -49.001 2
vertex -20 -62.001 2
vertex 28 -62.001 2
endloop
endfacet
facet normal -0 1 0
outer loop
vertex -20 7 1.999
vertex 26 7 2
vertex -51 7 -0.001
endloop
endfacet
facet normal -0 1 0
outer loop
vertex 28 7 1.999
vertex 59 7 1.999
vertex 59 7 -0.001
endloop
endfacet
facet normal -0 1 0
outer loop
vertex 26 7 2
vertex 28 7 2
vertex 28 7 1.999
endloop
endfacet
facet normal 0 -0 -1
outer loop
vertex 59 7 -0.001
vertex 59 -62.001 -0.001
vertex -51 -62.001 -0.001
endloop
endfacet
facet normal -0 0 -1
outer loop
vertex 59 7 -0.001
vertex -51 -62.001 -0.001
vertex -51 7 -0.001
endloop
endfacet
facet normal 0.294261 -0.955725 0
outer loop
vertex -19.417 -33.62 8
vertex -19.417 -33.62 2
vertex -16.6498 -32.768 2
endloop
endfacet
facet normal 0 0 1
outer loop
vertex 2.221 -11.575 8
vertex -8.31 -13.403 8
vertex -19.518 -24.203 8
endloop
endfacet
facet normal 0 0 1
outer loop
vertex -20 7 2
vertex -9.355 -9.017 2
vertex 2.221 -11.575 2
endloop
endfacet
facet normal 0 0 1
outer loop
vertex -20 7 2
vertex -8.31 -13.403 2
vertex -9.355 -9.017 2
endloop
endfacet
facet normal 0 0 1
outer loop
vertex 25.899 -33.624 2
vertex 18.8353 -32.768 2
vertex 18.427 -35.366 2
endloop
endfacet
facet normal -0 0 1
outer loop
vertex 1.984 -0.999 2
vertex 4.498 -1.002 2
vertex 26 7 2
endloop
endfacet
facet normal 1 0 -0
outer loop
vertex 59 7 -0.001
vertex 59 7 1.999
vertex 59 -62.001 -0.001
endloop
endfacet
facet normal 1 0 0
outer loop
vertex 59 -62.001 5
vertex 59 -62.001 -0.001
vertex 59 7 1.999
endloop
endfacet
facet normal 1 0 0
outer loop
vertex 59 7.001 5
vertex 59 -62.001 5
vertex 59 7 1.999
endloop
endfacet
facet normal 0.294262 -0.955725 3.49098e-07
outer loop
vertex -16.6498 -32.768 2
vertex -12.551 -31.506 8
vertex -19.417 -33.62 8
endloop
endfacet
facet normal 0 0 1
outer loop
vertex 10.854 -27.404 8
vertex 18.427 -35.366 8
vertex 19.033 -31.51 8
endloop
endfacet
facet normal 0 0 1
outer loop
vertex -9.355 -9.017 8
vertex -8.31 -13.403 8
vertex 2.221 -11.575 8
endloop
endfacet
facet normal -0 0 1
outer loop
vertex 19.033 -31.51 8
vertex 25.899 -33.624 8
vertex 23.072 -25.991 8
endloop
endfacet
facet normal 0 0 1
outer loop
vertex 15.837 -9.02 8
vertex -1.444 -40.838 8
vertex 3.229 -49.001 8
endloop
endfacet
facet normal 0 0 1
outer loop
vertex -20 7 2
vertex 2.221 -11.575 2
vertex 1.984 -0.999 2
endloop
endfacet
facet normal 0 0 1
outer loop
vertex 3.229 -49.001 8
vertex 14.792 -13.406 8
vertex 15.837 -9.02 8
endloop
endfacet
facet normal 0 0 1
outer loop
vertex 10.854 -27.404 8
vertex 26 -24.207 8
vertex 14.792 -13.406 8
endloop
endfacet
facet normal 0 0 1
outer loop
vertex 26 -24.207 2
vertex 25.582 -32.768 2
vertex 25.899 -33.624 2
endloop
endfacet
facet normal -0 0 1
outer loop
vertex 25.899 -33.624 2
vertex 28 -62.001 2
vertex 26 -24.207 2
endloop
endfacet
facet normal 0 0 1
outer loop
vertex -12.551 -31.506 8
vertex -16.59 -25.987 8
vertex -19.417 -33.62 8
endloop
endfacet
facet normal -0 0 1
outer loop
vertex -12.551 -31.506 8
vertex -11.945 -35.362 8
vertex -4.372 -27.4 8
endloop
endfacet
facet normal -0 0 1
outer loop
vertex 7.926 -40.841 8
vertex 12.369 -43.32 8
vertex 10.854 -27.404 8
endloop
endfacet
facet normal 0 0 1
outer loop
vertex -4.372 -27.4 8
vertex -19.518 -24.203 8
vertex -16.59 -25.987 8
endloop
endfacet
facet normal 0 0 1
outer loop
vertex 26 7 2
vertex 4.261 -11.579 2
vertex 15.837 -9.02 2
endloop
endfacet
facet normal 0 0 1
outer loop
vertex 26 7 2
vertex 4.498 -1.002 2
vertex 4.261 -11.579 2
endloop
endfacet
facet normal 0 0 1
outer loop
vertex 15.837 -9.02 8
vertex 4.261 -11.579 8
vertex -5.887 -43.317 8
endloop
endfacet
facet normal -0 0 1
outer loop
vertex 14.792 -13.406 2
vertex 26 -24.207 2
vertex 28 7 2
endloop
endfacet
facet normal 0 0 1
outer loop
vertex -51 7.001 5
vertex -51 -62.001 5
vertex -20 -62.001 5
endloop
endfacet
facet normal 0 0 1
outer loop
vertex 25.899 -33.624 2
vertex 19.033 -31.51 2
vertex 18.8353 -32.768 2
endloop
endfacet
facet normal 0 0 1
outer loop
vertex 59 7.001 5
vertex 28 7.001 5
vertex 59 -62.001 5
endloop
endfacet
facet normal 0 0 1
outer loop
vertex 26 -24.207 2
vertex 23.072 -25.991 2
vertex 25.582 -32.768 2
endloop
endfacet
facet normal 0 0 1
outer loop
vertex 28 -62.001 2
vertex 25.899 -33.624 2
vertex 18.427 -35.366 2
endloop
endfacet
facet normal -0.93775 0.34731 -2.32557e-07
outer loop
vertex -16.59 -25.987 2
vertex -19.1014 -32.768 2
vertex -19.417 -33.62 8
endloop
endfacet
facet normal -0.520317 -0.853973 -0
outer loop
vertex -19.518 -24.203 8
vertex -19.518 -24.203 2
vertex -16.59 -25.987 8
endloop
endfacet
facet normal -0.995501 0.094753 0
outer loop
vertex -5.887 -43.317 2
vertex -5.887 -43.317 8
vertex -4.372 -27.4 2
endloop
endfacet
facet normal -0.999749 -0.0224036 0
outer loop
vertex 2.221 -11.575 2
vertex 2.221 -11.575 8
vertex 1.984 -0.999 2
endloop
endfacet
facet normal -0.693879 0.720092 0
outer loop
vertex -8.31 -13.403 8
vertex -19.518 -24.203 2
vertex -19.518 -24.203 8
endloop
endfacet
facet normal -0.972771 -0.23177 -0
outer loop
vertex -9.355 -9.017 8
vertex -9.355 -9.017 2
vertex -8.31 -13.403 8
endloop
endfacet
facet normal -0.999749 -0.0224036 -0
outer loop
vertex 1.984 -0.999 8
vertex 1.984 -0.999 2
vertex 2.221 -11.575 8
endloop
endfacet
facet normal 0 -0 1
outer loop
vertex -4.372 -27.4 8
vertex 4.261 -11.579 8
vertex -19.518 -24.203 8
endloop
endfacet
facet normal 0.724586 -0.689185 0
outer loop
vertex -11.945 -35.362 2
vertex -4.372 -27.4 8
vertex -11.945 -35.362 8
endloop
endfacet
facet normal 0.215769 0.976444 0
outer loop
vertex 2.221 -11.575 8
vertex -9.355 -9.017 2
vertex -9.355 -9.017 8
endloop
endfacet
facet normal 0.0011933 0.999999 -0
outer loop
vertex 1.984 -0.999 2
vertex 1.984 -0.999 8
vertex 4.498 -1.002 2
endloop
endfacet
facet normal 0.0011933 0.999999 0
outer loop
vertex 4.498 -1.002 8
vertex 4.498 -1.002 2
vertex 1.984 -0.999 8
endloop
endfacet
facet normal 0.724586 -0.689185 0
outer loop
vertex -4.372 -27.4 2
vertex -4.372 -27.4 8
vertex -11.945 -35.362 2
endloop
endfacet
facet normal 0.97277 -0.23177 0
outer loop
vertex 15.837 -9.02 2
vertex 15.837 -9.02 8
vertex 14.792 -13.406 8
endloop
endfacet
facet normal 0.97277 -0.23177 0
outer loop
vertex 15.837 -9.02 2
vertex 14.792 -13.406 8
vertex 14.792 -13.406 2
endloop
endfacet
facet normal -0.987875 -0.155252 0
outer loop
vertex -11.945 -35.362 2
vertex -11.945 -35.362 8
vertex -12.551 -31.506 2
endloop
endfacet
facet normal -0.21585 0.976427 0
outer loop
vertex 4.261 -11.579 2
vertex 4.261 -11.579 8
vertex 15.837 -9.02 2
endloop
endfacet
facet normal 0 0 1
outer loop
vertex -5.887 -43.317 8
vertex -1.444 -40.838 8
vertex 15.837 -9.02 8
endloop
endfacet
facet normal -0.693879 0.720092 0
outer loop
vertex -8.31 -13.403 2
vertex -19.518 -24.203 2
vertex -8.31 -13.403 8
endloop
endfacet
facet normal 0.693912 0.72006 -0
outer loop
vertex 14.792 -13.406 2
vertex 14.792 -13.406 8
vertex 26 -24.207 2
endloop
endfacet
facet normal 0.693912 0.72006 0
outer loop
vertex 26 -24.207 8
vertex 26 -24.207 2
vertex 14.792 -13.406 8
endloop
endfacet
facet normal -0.972771 -0.23177 0
outer loop
vertex -9.355 -9.017 2
vertex -8.31 -13.403 2
vertex -8.31 -13.403 8
endloop
endfacet
facet normal 0.215769 0.976444 0
outer loop
vertex 2.221 -11.575 8
vertex 2.221 -11.575 2
vertex -9.355 -9.017 2
endloop
endfacet
facet normal -0.724586 -0.689185 0
outer loop
vertex 18.427 -35.366 2
vertex 18.427 -35.366 8
vertex 10.854 -27.404 2
endloop
endfacet
facet normal -0.867857 -0.496814 -0
outer loop
vertex 3.229 -49.001 8
vertex -1.444 -40.838 8
vertex 3.229 -49.001 2
endloop
endfacet
facet normal -0.867857 -0.496814 0
outer loop
vertex -1.444 -40.838 2
vertex 3.229 -49.001 2
vertex -1.444 -40.838 8
endloop
endfacet
facet normal -0.487244 -0.873266 -0
outer loop
vertex 12.369 -43.32 8
vertex 7.926 -40.841 8
vertex 12.369 -43.32 2
endloop
endfacet
facet normal 0.987875 -0.155252 -2.3207e-07
outer loop
vertex 19.033 -31.51 8
vertex 18.427 -35.366 8
vertex 18.8353 -32.768 2
endloop
endfacet
facet normal 0.987875 -0.155253 0
outer loop
vertex 19.033 -31.51 8
vertex 18.8353 -32.768 2
vertex 19.033 -31.51 2
endloop
endfacet
facet normal 0.987875 -0.155252 0
outer loop
vertex 18.427 -35.366 8
vertex 18.427 -35.366 2
vertex 18.8353 -32.768 2
endloop
endfacet
facet normal -0.294262 -0.955725 -0
outer loop
vertex 19.033 -31.51 8
vertex 19.033 -31.51 2
vertex 25.899 -33.624 2
endloop
endfacet
facet normal 0.487244 -0.873266 0
outer loop
vertex -5.887 -43.317 8
vertex -5.887 -43.317 2
vertex -1.444 -40.838 8
endloop
endfacet
facet normal -0.294262 -0.955725 0
outer loop
vertex 25.899 -33.624 2
vertex 25.899 -33.624 8
vertex 19.033 -31.51 8
endloop
endfacet
facet normal -0.995501 0.094753 0
outer loop
vertex -4.372 -27.4 8
vertex -4.372 -27.4 2
vertex -5.887 -43.317 8
endloop
endfacet
facet normal 0.520317 -0.853973 0
outer loop
vertex 23.072 -25.991 2
vertex 26 -24.207 8
vertex 23.072 -25.991 8
endloop
endfacet
facet normal 0.9955 0.0947589 0
outer loop
vertex 12.369 -43.32 8
vertex 12.369 -43.32 2
vertex 10.854 -27.404 8
endloop
endfacet
facet normal 0.520317 -0.853973 0
outer loop
vertex 23.072 -25.991 2
vertex 26 -24.207 2
vertex 26 -24.207 8
endloop
endfacet
facet normal 0.93775 0.347312 0
outer loop
vertex 25.899 -33.624 8
vertex 25.899 -33.624 2
vertex 25.582 -32.768 2
endloop
endfacet
facet normal -0.987875 -0.155252 -0
outer loop
vertex -12.551 -31.506 8
vertex -12.551 -31.506 2
vertex -11.945 -35.362 8
endloop
endfacet
facet normal -0 0 1
outer loop
vertex -4.372 -27.4 8
vertex -5.887 -43.317 8
vertex 4.261 -11.579 8
endloop
endfacet
facet normal -0.93775 0.34731 0
outer loop
vertex -19.417 -33.62 8
vertex -16.59 -25.987 8
vertex -16.59 -25.987 2
endloop
endfacet
facet normal -0.520317 -0.853973 -0
outer loop
vertex -16.59 -25.987 8
vertex -19.518 -24.203 2
vertex -16.59 -25.987 2
endloop
endfacet
facet normal -0.487244 -0.873266 0
outer loop
vertex 12.369 -43.32 2
vertex 7.926 -40.841 8
vertex 7.926 -40.841 2
endloop
endfacet
facet normal -0.21585 0.976427 0
outer loop
vertex 15.837 -9.02 8
vertex 15.837 -9.02 2
vertex 4.261 -11.579 8
endloop
endfacet
facet normal 0.866677 -0.49887 0
outer loop
vertex 3.229 -49.001 8
vertex 3.229 -49.001 2
vertex 7.926 -40.841 8
endloop
endfacet
facet normal 0.866677 -0.49887 0
outer loop
vertex 7.926 -40.841 2
vertex 7.926 -40.841 8
vertex 3.229 -49.001 2
endloop
endfacet
facet normal 0.999749 -0.0224015 0
outer loop
vertex 4.261 -11.579 2
vertex 4.498 -1.002 2
vertex 4.261 -11.579 8
endloop
endfacet
facet normal 0.999749 -0.0224015 0
outer loop
vertex 4.498 -1.002 2
vertex 4.498 -1.002 8
vertex 4.261 -11.579 8
endloop
endfacet
facet normal 0.487244 -0.873266 0
outer loop
vertex -1.444 -40.838 2
vertex -1.444 -40.838 8
vertex -5.887 -43.317 2
endloop
endfacet
endsolid surface
