solid surface
facet normal 0.534915 -0.642319 0.548902
    outer loop
        vertex 37.8221 -7.62227 84.3234
        vertex 38.4925 -41.4016 44.1419
        vertex 82.5059 -8.30844 39.9753
    endloop
endfacet
facet normal 0.605576 -0.795638 0.0153984
    outer loop
        vertex 9.59716 -80.4212 17.0597
        vertex 8.30846 -82.5059 -39.9753
        vertex 50 -50 8.76513e-05
    endloop
endfacet
facet normal 0.703525 0.216308 -0.676952
    outer loop
        vertex 7.9062 47.798 -78.7026
        vertex 37.2259 2.4338 -62.7273
        vertex 6.08514 6.87792 -93.6704
    endloop
endfacet
facet normal 0.784096 0.47289 -0.401957
    outer loop
        vertex 0 74.3 -66.9
        vertex 0 77.7 -62.9
        vertex 6.38179 81.5658 -45.9031
    endloop
endfacet
facet normal -0.534915 0.642319 0.548902
    outer loop
        vertex -37.8221 7.62227 84.3234
        vertex -38.4925 41.4016 44.1419
        vertex -82.5059 8.30844 39.9753
    endloop
endfacet
facet normal -0.605576 0.795638 0.0153984
    outer loop
        vertex -9.59716 80.4212 17.0597
        vertex -8.30846 82.5059 -39.9753
        vertex -50 50 8.76513e-05
    endloop
endfacet
facet normal -0.703525 -0.216308 -0.676952
    outer loop
        vertex -7.9062 -47.798 -78.7026
        vertex -37.2259 -2.4338 -62.7273
        vertex -6.08514 -6.87792 -93.6704
    endloop
endfacet
facet normal -0.784096 -0.47289 -0.401957
    outer loop
        vertex 0 -74.3 -66.9
        vertex 0 -77.7 -62.9
        vertex -6.38179 -81.5658 -45.9031
    endloop
endfacet
facet normal -0.748613 0.591271 -0.299961
    outer loop
        vertex -8.30846 82.5059 -39.9753
        vertex -41.4017 38.4925 -44.1418
        vertex -50 50 8.76513e-05
    endloop
endfacet
facet normal -0.795638 0.605577 -0.0153966
    outer loop
        vertex -82.5059 8.30844 39.9753
        vertex -50 50 8.76513e-05
        vertex -80.4213 9.59719 -17.0596
    endloop
endfacet
facet normal 0.216308 0.703525 0.676952
    outer loop
        vertex 47.798 7.90617 78.7026
        vertex 2.43384 37.2258 62.7274
        vertex 6.87793 6.08512 93.6704
    endloop
endfacet
facet normal 0.674354 0.721159 0.158672
    outer loop
        vertex 96.6 0 25.9
        vertex 97.8 0 20.8
        vertex 87.4459 11.931 10.5788
    endloop
endfacet
facet normal 0.748613 -0.591271 -0.299961
    outer loop
        vertex 8.30846 -82.5059 -39.9753
        vertex 41.4017 -38.4925 -44.1418
        vertex 50 -50 8.76513e-05
    endloop
endfacet
facet normal 0.795638 -0.605577 -0.0153966
    outer loop
        vertex 82.5059 -8.30844 39.9753
        vertex 50 -50 8.76513e-05
        vertex 80.4213 -9.59719 -17.0596
    endloop
endfacet
facet normal -0.216308 -0.703525 0.676952
    outer loop
        vertex -47.798 -7.90617 78.7026
        vertex -2.43384 -37.2258 62.7274
        vertex -6.87793 -6.08512 93.6704
    endloop
endfacet
facet normal -0.674354 -0.721159 0.158672
    outer loop
        vertex -96.6 0 25.9
        vertex -97.8 0 20.8
        vertex -87.4459 -11.931 10.5788
    endloop
endfacet
facet normal 0.839335 -0.538565 -0.0739206
    outer loop
        vertex 8.30846 -82.5059 -39.9753
        vertex 0 -99.5 -10.5
        vertex 0 -98.8 -15.6
    endloop
endfacet
facet normal 0.804772 0.56855 -0.170565
    outer loop
        vertex 6.38179 81.5658 -45.9031
        vertex 0 95.1 -30.9
        vertex 0 96.6 -25.9
    endloop
endfacet
facet normal 0.717493 0.0947191 -0.690096
    outer loop
        vertex 6.08514 6.87792 -93.6704
        vertex 0 10.5 -99.5
        vertex 0 15.6 -98.8
    endloop
endfacet
facet normal 0.709553 0.702653 -0.0530304
    outer loop
        vertex 11.931 87.4459 -10.5788
        vertex 0 99.5 -10.5
        vertex 0 99.9 -5.2
    endloop
endfacet
facet normal -0.839335 0.538565 -0.0739206
    outer loop
        vertex -8.30846 82.5059 -39.9753
        vertex 0 99.5 -10.5
        vertex 0 98.8 -15.6
    endloop
endfacet
facet normal -0.804772 -0.56855 -0.170565
    outer loop
        vertex -6.38179 -81.5658 -45.9031
        vertex 0 -95.1 -30.9
        vertex 0 -96.6 -25.9
    endloop
endfacet
facet normal -0.717493 -0.0947191 -0.690096
    outer loop
        vertex -6.08514 -6.87792 -93.6704
        vertex 0 -10.5 -99.5
        vertex 0 -15.6 -98.8
    endloop
endfacet
facet normal -0.709553 -0.702653 -0.0530304
    outer loop
        vertex -11.931 -87.4459 -10.5788
        vertex 0 -99.5 -10.5
        vertex 0 -99.9 -5.2
    endloop
endfacet
facet normal -0.538564 0.839336 0.0739206
    outer loop
        vertex -82.5059 8.30844 39.9753
        vertex -99.5 0 10.5
        vertex -98.8 0 15.6
    endloop
endfacet
facet normal -0.125282 0.690245 0.712647
    outer loop
        vertex 6.87793 6.08512 93.6704
        vertex 2.43384 37.2258 62.7274
        vertex -37.8221 7.62227 84.3234
    endloop
endfacet
facet normal 0.0947191 0.717493 0.690096
    outer loop
        vertex 6.87793 6.08512 93.6704
        vertex 10.5 0 99.5
        vertex 15.6 0 98.8
    endloop
endfacet
facet normal 0.702653 0.709553 0.0530304
    outer loop
        vertex 87.4459 11.931 10.5788
        vertex 99.5 0 10.5
        vertex 99.9 0 5.2
    endloop
endfacet
facet normal 0.538564 -0.839336 0.0739206
    outer loop
        vertex 82.5059 -8.30844 39.9753
        vertex 99.5 0 10.5
        vertex 98.8 0 15.6
    endloop
endfacet
facet normal 0.125282 -0.690245 0.712647
    outer loop
        vertex -6.87793 -6.08512 93.6704
        vertex -2.43384 -37.2258 62.7274
        vertex 37.8221 -7.62227 84.3234
    endloop
endfacet
facet normal -0.0947191 -0.717493 0.690096
    outer loop
        vertex -6.87793 -6.08512 93.6704
        vertex -10.5 0 99.5
        vertex -15.6 0 98.8
    endloop
endfacet
facet normal -0.702653 -0.709553 0.0530304
    outer loop
        vertex -87.4459 -11.931 10.5788
        vertex -99.5 0 10.5
        vertex -99.9 0 5.2
    endloop
endfacet
facet normal 0.70706 -0.635177 -0.310831
    outer loop
        vertex 8.30846 -82.5059 -39.9753
        vertex 0 -91.4 -40.7
        vertex 0 -89.1 -45.4
    endloop
endfacet
facet normal 0.707898 -0.266914 -0.65394
    outer loop
        vertex 7.62229 -37.8221 -84.3234
        vertex 0 -40.7 -91.4
        vertex 0 -35.8 -93.4
    endloop
endfacet
facet normal 0.723456 0.303454 -0.620102
    outer loop
        vertex 7.9062 47.798 -78.7026
        vertex 0 40.7 -91.4
        vertex 0 45.4 -89.1
    endloop
endfacet
facet normal 0.745528 0.617053 -0.251859
    outer loop
        vertex 6.38179 81.5658 -45.9031
        vertex 0 91.4 -40.7
        vertex 0 93.4 -35.8
    endloop
endfacet
facet normal -0.70706 0.635177 -0.310831
    outer loop
        vertex -8.30846 82.5059 -39.9753
        vertex 0 91.4 -40.7
        vertex 0 89.1 -45.4
    endloop
endfacet
facet normal -0.707898 0.266914 -0.65394
    outer loop
        vertex -7.62229 37.8221 -84.3234
        vertex 0 40.7 -91.4
        vertex 0 35.8 -93.4
    endloop
endfacet
facet normal -0.723456 -0.303454 -0.620102
    outer loop
        vertex -7.9062 -47.798 -78.7026
        vertex 0 -40.7 -91.4
        vertex 0 -45.4 -89.1
    endloop
endfacet
facet normal -0.745528 -0.617053 -0.251859
    outer loop
        vertex -6.38179 -81.5658 -45.9031
        vertex 0 -91.4 -40.7
        vertex 0 -93.4 -35.8
    endloop
endfacet
facet normal -0.635177 0.70706 0.310831
    outer loop
        vertex -82.5059 8.30844 39.9753
        vertex -91.4 0 40.7
        vertex -89.1 0 45.4
    endloop
endfacet
facet normal -0.266914 0.707898 0.65394
    outer loop
        vertex -37.8221 7.62227 84.3234
        vertex -40.7 0 91.4
        vertex -35.8 0 93.4
    endloop
endfacet
facet normal 0.303454 0.723456 0.620102
    outer loop
        vertex 47.798 7.90617 78.7026
        vertex 40.7 0 91.4
        vertex 45.4 0 89.1
    endloop
endfacet
facet normal 0.617053 0.745528 0.251858
    outer loop
        vertex 81.5658 6.38178 45.9031
        vertex 91.4 0 40.7
        vertex 93.4 0 35.8
    endloop
endfacet
facet normal 0.635177 -0.70706 0.310831
    outer loop
        vertex 82.5059 -8.30844 39.9753
        vertex 91.4 0 40.7
        vertex 89.1 0 45.4
    endloop
endfacet
facet normal 0.266914 -0.707898 0.65394
    outer loop
        vertex 37.8221 -7.62227 84.3234
        vertex 40.7 0 91.4
        vertex 35.8 0 93.4
    endloop
endfacet
facet normal -0.303454 -0.723456 0.620102
    outer loop
        vertex -47.798 -7.90617 78.7026
        vertex -40.7 0 91.4
        vertex -45.4 0 89.1
    endloop
endfacet
facet normal -0.617053 -0.745528 0.251858
    outer loop
        vertex -81.5658 -6.38178 45.9031
        vertex -91.4 0 40.7
        vertex -93.4 0 35.8
    endloop
endfacet
facet normal 0.751153 -0.541389 -0.377713
    outer loop
        vertex 8.30846 -82.5059 -39.9753
        vertex 0 -83.9 -54.5
        vertex 0 -80.9 -58.8
    endloop
endfacet
facet normal 0.733165 -0.349883 -0.583139
    outer loop
        vertex 7.62229 -37.8221 -84.3234
        vertex 0 -54.5 -83.9
        vertex 0 -50 -86.6
    endloop
endfacet
facet normal 0.7155 0.399733 -0.572951
    outer loop
        vertex 7.9062 47.798 -78.7026
        vertex 0 54.5 -83.9
        vertex 0 58.8 -80.9
    endloop
endfacet
facet normal 0.70947 0.604306 -0.362584
    outer loop
        vertex 6.38179 81.5658 -45.9031
        vertex 0 83.9 -54.5
        vertex 0 86.6 -50
    endloop
endfacet
facet normal -0.751153 0.541389 -0.377713
    outer loop
        vertex -8.30846 82.5059 -39.9753
        vertex 0 83.9 -54.5
        vertex 0 80.9 -58.8
    endloop
endfacet
facet normal -0.733165 0.349883 -0.583139
    outer loop
        vertex -7.62229 37.8221 -84.3234
        vertex 0 54.5 -83.9
        vertex 0 50 -86.6
    endloop
endfacet
facet normal -0.7155 -0.399733 -0.572951
    outer loop
        vertex -7.9062 -47.798 -78.7026
        vertex 0 -54.5 -83.9
        vertex 0 -58.8 -80.9
    endloop
endfacet
facet normal -0.70947 -0.604306 -0.362584
    outer loop
        vertex -6.38179 -81.5658 -45.9031
        vertex 0 -83.9 -54.5
        vertex 0 -86.6 -50
    endloop
endfacet
facet normal -0.541389 0.751152 0.377714
    outer loop
        vertex -82.5059 8.30844 39.9753
        vertex -83.9 0 54.5
        vertex -80.9 0 58.8
    endloop
endfacet
facet normal -0.349883 0.733165 0.583139
    outer loop
        vertex -37.8221 7.62227 84.3234
        vertex -54.5 0 83.9
        vertex -50 0 86.6
    endloop
endfacet
facet normal 0.399733 0.7155 0.572951
    outer loop
        vertex 47.798 7.90617 78.7026
        vertex 54.5 0 83.9
        vertex 58.8 0 80.9
    endloop
endfacet
facet normal 0.604306 0.70947 0.362584
    outer loop
        vertex 81.5658 6.38178 45.9031
        vertex 83.9 0 54.5
        vertex 86.6 0 50
    endloop
endfacet
facet normal 0.541389 -0.751152 0.377714
    outer loop
        vertex 82.5059 -8.30844 39.9753
        vertex 83.9 0 54.5
        vertex 80.9 0 58.8
    endloop
endfacet
facet normal 0.349883 -0.733165 0.583139
    outer loop
        vertex 37.8221 -7.62227 84.3234
        vertex 54.5 0 83.9
        vertex 50 0 86.6
    endloop
endfacet
facet normal -0.399733 -0.7155 0.572951
    outer loop
        vertex -47.798 -7.90617 78.7026
        vertex -54.5 0 83.9
        vertex -58.8 0 80.9
    endloop
endfacet
facet normal -0.604306 -0.70947 0.362584
    outer loop
        vertex -81.5658 -6.38178 45.9031
        vertex -83.9 0 54.5
        vertex -86.6 0 50
    endloop
endfacet
facet normal 0.727945 -0.0131829 -0.685509
    outer loop
        vertex 6.08514 6.87792 -93.6704
        vertex 0 -5.2 -99.9
        vertex 0 0 -100
    endloop
endfacet
facet normal 0.719156 0.69472 -0.01336
    outer loop
        vertex 11.931 87.4459 -10.5788
        vertex 0 99.9 -5.2
        vertex 0 100 0
    endloop
endfacet
facet normal -0.727945 0.0131829 -0.685509
    outer loop
        vertex -6.08514 -6.87792 -93.6704
        vertex 0 5.2 -99.9
        vertex 0 0 -100
    endloop
endfacet
facet normal -0.719156 -0.69472 -0.01336
    outer loop
        vertex -11.931 -87.4459 -10.5788
        vertex 0 -99.9 -5.2
        vertex 0 -100 0
    endloop
endfacet
facet normal -0.0131829 0.727945 0.685509
    outer loop
        vertex 6.87793 6.08512 93.6704
        vertex -5.2 0 99.9
        vertex 0 0 100
    endloop
endfacet
facet normal 0.69472 0.719156 0.01336
    outer loop
        vertex 87.4459 11.931 10.5788
        vertex 99.9 0 5.2
        vertex 100 0 0
    endloop
endfacet
facet normal 0.0131829 -0.727945 0.685509
    outer loop
        vertex -6.87793 -6.08512 93.6704
        vertex 5.2 0 99.9
        vertex 0 0 100
    endloop
endfacet
facet normal -0.69472 -0.719156 0.01336
    outer loop
        vertex -87.4459 -11.931 10.5788
        vertex -99.9 0 5.2
        vertex -100 0 0
    endloop
endfacet
facet normal 0.720185 -0.227403 -0.655455
    outer loop
        vertex 7.62229 -37.8221 -84.3234
        vertex 0 -35.8 -93.4
        vertex 0 -30.9 -95.1
    endloop
endfacet
facet normal 0.776681 0.595097 -0.206462
    outer loop
        vertex 6.38179 81.5658 -45.9031
        vertex 0 93.4 -35.8
        vertex 0 95.1 -30.9
    endloop
endfacet
facet normal -0.720185 0.227403 -0.655455
    outer loop
        vertex -7.62229 37.8221 -84.3234
        vertex 0 35.8 -93.4
        vertex 0 30.9 -95.1
    endloop
endfacet
facet normal -0.776681 -0.595097 -0.206462
    outer loop
        vertex -6.38179 -81.5658 -45.9031
        vertex 0 -93.4 -35.8
        vertex 0 -95.1 -30.9
    endloop
endfacet
facet normal -0.227403 0.720185 0.655455
    outer loop
        vertex -37.8221 7.62227 84.3234
        vertex -35.8 0 93.4
        vertex -30.9 0 95.1
    endloop
endfacet
facet normal 0.595097 0.776681 0.206462
    outer loop
        vertex 81.5658 6.38178 45.9031
        vertex 93.4 0 35.8
        vertex 95.1 0 30.9
    endloop
endfacet
facet normal 0.227403 -0.720185 0.655455
    outer loop
        vertex 37.8221 -7.62227 84.3234
        vertex 35.8 0 93.4
        vertex 30.9 0 95.1
    endloop
endfacet
facet normal -0.595097 -0.776681 0.206462
    outer loop
        vertex -81.5658 -6.38178 45.9031
        vertex -93.4 0 35.8
        vertex -95.1 0 30.9
    endloop
endfacet
facet normal 0.808087 -0.578464 -0.111243
    outer loop
        vertex 8.30846 -82.5059 -39.9753
        vertex 0 -98.8 -15.6
        vertex 0 -97.8 -20.8
    endloop
endfacet
facet normal 0.870964 -0.489953 -0.0369776
    outer loop
        vertex 0 -99.9 -5.2
        vertex 0 -99.5 -10.5
        vertex 8.30846 -82.5059 -39.9753
    endloop
endfacet
facet normal 0.739477 0.127129 -0.661068
    outer loop
        vertex 6.08514 6.87792 -93.6704
        vertex 0 15.6 -98.8
        vertex 0 20.8 -97.8
    endloop
endfacet
facet normal 0.815053 0.420607 -0.39847
    outer loop
        vertex 7.9062 47.798 -78.7026
        vertex 0 70.7 -70.7
        vertex 0 74.3 -66.9
    endloop
endfacet
facet normal -0.808087 0.578464 -0.111243
    outer loop
        vertex -8.30846 82.5059 -39.9753
        vertex 0 98.8 -15.6
        vertex 0 97.8 -20.8
    endloop
endfacet
facet normal -0.870964 0.489953 -0.0369776
    outer loop
        vertex 0 99.9 -5.2
        vertex 0 99.5 -10.5
        vertex -8.30846 82.5059 -39.9753
    endloop
endfacet
facet normal -0.739477 -0.127129 -0.661068
    outer loop
        vertex -6.08514 -6.87792 -93.6704
        vertex 0 -15.6 -98.8
        vertex 0 -20.8 -97.8
    endloop
endfacet
facet normal -0.815053 -0.420607 -0.39847
    outer loop
        vertex -7.9062 -47.798 -78.7026
        vertex 0 -70.7 -70.7
        vertex 0 -74.3 -66.9
    endloop
endfacet
facet normal -0.578463 0.808087 0.111243
    outer loop
        vertex -82.5059 8.30844 39.9753
        vertex -98.8 0 15.6
        vertex -97.8 0 20.8
    endloop
endfacet
facet normal -0.862884 0.347587 -0.366898
    outer loop
        vertex -8.30846 82.5059 -39.9753
        vertex 0 70.7 -70.7
        vertex 0 66.9 -74.3
    endloop
endfacet
facet normal 0.127129 0.739477 0.661068
    outer loop
        vertex 6.87793 6.08512 93.6704
        vertex 15.6 0 98.8
        vertex 20.8 0 97.8
    endloop
endfacet
facet normal 0.578463 -0.808087 0.111243
    outer loop
        vertex 82.5059 -8.30844 39.9753
        vertex 98.8 0 15.6
        vertex 97.8 0 20.8
    endloop
endfacet
facet normal 0.862884 -0.347587 -0.366898
    outer loop
        vertex 8.30846 -82.5059 -39.9753
        vertex 0 -70.7 -70.7
        vertex 0 -66.9 -74.3
    endloop
endfacet
facet normal -0.127129 -0.739477 0.661068
    outer loop
        vertex -6.87793 -6.08512 93.6704
        vertex -15.6 0 98.8
        vertex -20.8 0 97.8
    endloop
endfacet
facet normal 0.75119 -0.632248 -0.189674
    outer loop
        vertex 8.30846 -82.5059 -39.9753
        vertex 0 -96.6 -25.9
        vertex 0 -95.1 -30.9
    endloop
endfacet
facet normal 0.770712 -0.14594 -0.620246
    outer loop
        vertex 7.62229 -37.8221 -84.3234
        vertex 0 -25.9 -96.6
        vertex 0 -20.8 -97.8
    endloop
endfacet
facet normal 0.806769 0.170979 -0.565588
    outer loop
        vertex 6.08514 6.87792 -93.6704
        vertex 0 25.9 -96.6
        vertex 7.9062 47.798 -78.7026
    endloop
endfacet
facet normal 0.813384 -0.0921362 -0.574385
    outer loop
        vertex 7.62229 -37.8221 -84.3234
        vertex 0 -10.5 -99.5
        vertex 6.08514 6.87792 -93.6704
    endloop
endfacet
facet normal -0.75119 0.632248 -0.189674
    outer loop
        vertex -8.30846 82.5059 -39.9753
        vertex 0 96.6 -25.9
        vertex 0 95.1 -30.9
    endloop
endfacet
facet normal -0.770712 0.14594 -0.620246
    outer loop
        vertex -7.62229 37.8221 -84.3234
        vertex 0 25.9 -96.6
        vertex 0 20.8 -97.8
    endloop
endfacet
facet normal -0.806769 -0.170979 -0.565588
    outer loop
        vertex -6.08514 -6.87792 -93.6704
        vertex 0 -25.9 -96.6
        vertex -7.9062 -47.798 -78.7026
    endloop
endfacet
facet normal -0.813384 0.0921362 -0.574385
    outer loop
        vertex -7.62229 37.8221 -84.3234
        vertex 0 10.5 -99.5
        vertex -6.08514 -6.87792 -93.6704
    endloop
endfacet
facet normal -0.632247 0.75119 0.189674
    outer loop
        vertex -82.5059 8.30844 39.9753
        vertex -96.6 0 25.9
        vertex -95.1 0 30.9
    endloop
endfacet
facet normal -0.14594 0.770712 0.620246
    outer loop
        vertex -37.8221 7.62227 84.3234
        vertex -25.9 0 96.6
        vertex -20.8 0 97.8
    endloop
endfacet
facet normal 0.170979 0.806769 0.565588
    outer loop
        vertex 6.87793 6.08512 93.6704
        vertex 25.9 0 96.6
        vertex 47.798 7.90617 78.7026
    endloop
endfacet
facet normal 0.785206 0.37572 -0.492225
    outer loop
        vertex 87.4459 11.931 10.5788
        vertex 80.4213 -9.59719 -17.0596
        vertex 47.3432 44.0589 -28.8703
    endloop
endfacet
facet normal 0.632247 -0.75119 0.189674
    outer loop
        vertex 82.5059 -8.30844 39.9753
        vertex 96.6 0 25.9
        vertex 95.1 0 30.9
    endloop
endfacet
facet normal 0.14594 -0.770712 0.620246
    outer loop
        vertex 37.8221 -7.62227 84.3234
        vertex 25.9 0 96.6
        vertex 20.8 0 97.8
    endloop
endfacet
facet normal -0.170979 -0.806769 0.565588
    outer loop
        vertex -6.87793 -6.08512 93.6704
        vertex -25.9 0 96.6
        vertex -47.798 -7.90617 78.7026
    endloop
endfacet
facet normal -0.785206 -0.37572 -0.492225
    outer loop
        vertex -87.4459 -11.931 10.5788
        vertex -80.4213 9.59719 -17.0596
        vertex -47.3432 -44.0589 -28.8703
    endloop
endfacet
facet normal 0.778824 -0.494465 -0.385924
    outer loop
        vertex 8.30846 -82.5059 -39.9753
        vertex 0 -80.9 -58.8
        vertex 0 -77.7 -62.9
    endloop
endfacet
facet normal 0.732279 0.419002 -0.536847
    outer loop
        vertex 7.9062 47.798 -78.7026
        vertex 0 58.8 -80.9
        vertex 0 62.9 -77.7
    endloop
endfacet
facet normal -0.778824 0.494465 -0.385924
    outer loop
        vertex -8.30846 82.5059 -39.9753
        vertex 0 80.9 -58.8
        vertex 0 77.7 -62.9
    endloop
endfacet
facet normal -0.732279 -0.419002 -0.536847
    outer loop
        vertex -7.9062 -47.798 -78.7026
        vertex 0 -58.8 -80.9
        vertex 0 -62.9 -77.7
    endloop
endfacet
facet normal -0.494465 0.778824 0.385924
    outer loop
        vertex -82.5059 8.30844 39.9753
        vertex -80.9 0 58.8
        vertex -77.7 0 62.9
    endloop
endfacet
facet normal 0.419002 0.732279 0.536847
    outer loop
        vertex 47.798 7.90617 78.7026
        vertex 58.8 0 80.9
        vertex 62.9 0 77.7
    endloop
endfacet
facet normal 0.494465 -0.778824 0.385924
    outer loop
        vertex 82.5059 -8.30844 39.9753
        vertex 80.9 0 58.8
        vertex 77.7 0 62.9
    endloop
endfacet
facet normal -0.419002 -0.732279 0.536847
    outer loop
        vertex -47.798 -7.90617 78.7026
        vertex -58.8 0 80.9
        vertex -62.9 0 77.7
    endloop
endfacet
facet normal 0.710303 -0.61846 -0.33612
    outer loop
        vertex 8.30846 -82.5059 -39.9753
        vertex 0 -89.1 -45.4
        vertex 0 -86.6 -50
    endloop
endfacet
facet normal 0.71084 0.335861 -0.617984
    outer loop
        vertex 7.9062 47.798 -78.7026
        vertex 0 45.4 -89.1
        vertex 0 50 -86.6
    endloop
endfacet
facet normal -0.710303 0.61846 -0.33612
    outer loop
        vertex -8.30846 82.5059 -39.9753
        vertex 0 89.1 -45.4
        vertex 0 86.6 -50
    endloop
endfacet
facet normal -0.71084 -0.335861 -0.617984
    outer loop
        vertex -7.9062 -47.798 -78.7026
        vertex 0 -45.4 -89.1
        vertex 0 -50 -86.6
    endloop
endfacet
facet normal -0.61846 0.710303 0.33612
    outer loop
        vertex -82.5059 8.30844 39.9753
        vertex -89.1 0 45.4
        vertex -86.6 0 50
    endloop
endfacet
facet normal 0.335861 0.71084 0.617984
    outer loop
        vertex 47.798 7.90617 78.7026
        vertex 45.4 0 89.1
        vertex 50 0 86.6
    endloop
endfacet
facet normal 0.61846 -0.710303 0.33612
    outer loop
        vertex 82.5059 -8.30844 39.9753
        vertex 89.1 0 45.4
        vertex 86.6 0 50
    endloop
endfacet
facet normal -0.335861 -0.71084 0.617984
    outer loop
        vertex -47.798 -7.90617 78.7026
        vertex -45.4 0 89.1
        vertex -50 0 86.6
    endloop
endfacet
facet normal 0.752707 0.182264 0.632623
    outer loop
        vertex 11.931 87.4459 -10.5788
        vertex 0 100 0
        vertex -9.59716 80.4212 17.0597
    endloop
endfacet
facet normal -0.752707 -0.182264 0.632623
    outer loop
        vertex -11.931 -87.4459 -10.5788
        vertex 0 -100 0
        vertex 9.59716 -80.4212 17.0597
    endloop
endfacet
facet normal 0.615513 0.756422 0.221288
    outer loop
        vertex 81.5658 6.38178 45.9031
        vertex 96.6 0 25.9
        vertex 87.4459 11.931 10.5788
    endloop
endfacet
facet normal -0.615513 -0.756422 0.221288
    outer loop
        vertex -81.5658 -6.38178 45.9031
        vertex -96.6 0 25.9
        vertex -87.4459 -11.931 10.5788
    endloop
endfacet
facet normal 0.35251 -0.860206 0.368487
    outer loop
        vertex 82.5059 -8.30844 39.9753
        vertex 66.9 0 74.3
        vertex 37.8221 -7.62227 84.3234
    endloop
endfacet
facet normal 0.690245 -0.125282 -0.712647
    outer loop
        vertex 6.08514 6.87792 -93.6704
        vertex 37.2259 2.4338 -62.7273
        vertex 7.62229 -37.8221 -84.3234
    endloop
endfacet
facet normal -0.35251 0.860206 0.368487
    outer loop
        vertex -82.5059 8.30844 39.9753
        vertex -66.9 0 74.3
        vertex -37.8221 7.62227 84.3234
    endloop
endfacet
facet normal -0.690245 0.125282 -0.712647
    outer loop
        vertex -6.08514 -6.87792 -93.6704
        vertex -37.2259 -2.4338 -62.7273
        vertex -7.62229 37.8221 -84.3234
    endloop
endfacet
facet normal -0.642319 0.534915 -0.548902
    outer loop
        vertex -7.62229 37.8221 -84.3234
        vertex -41.4017 38.4925 -44.1418
        vertex -8.30846 82.5059 -39.9753
    endloop
endfacet
facet normal 0.521612 0.687636 0.505052
    outer loop
        vertex 81.5658 6.38178 45.9031
        vertex 44.0589 47.3431 28.8704
        vertex 47.798 7.90617 78.7026
    endloop
endfacet
facet normal 0.642319 -0.534915 -0.548902
    outer loop
        vertex 7.62229 -37.8221 -84.3234
        vertex 41.4017 -38.4925 -44.1418
        vertex 8.30846 -82.5059 -39.9753
    endloop
endfacet
facet normal -0.521612 -0.687636 0.505052
    outer loop
        vertex -81.5658 -6.38178 45.9031
        vertex -44.0589 -47.3431 28.8704
        vertex -47.798 -7.90617 78.7026
    endloop
endfacet
facet normal 0.347587 -0.862884 0.366898
    outer loop
        vertex 82.5059 -8.30844 39.9753
        vertex 70.7 0 70.7
        vertex 66.9 0 74.3
    endloop
endfacet
facet normal 0.18226 0.752708 -0.632624
    outer loop
        vertex 87.4459 11.931 10.5788
        vertex 100 0 0
        vertex 80.4213 -9.59719 -17.0596
    endloop
endfacet
facet normal -0.347587 0.862884 0.366898
    outer loop
        vertex -82.5059 8.30844 39.9753
        vertex -70.7 0 70.7
        vertex -66.9 0 74.3
    endloop
endfacet
facet normal -0.18226 -0.752708 -0.632624
    outer loop
        vertex -87.4459 -11.931 10.5788
        vertex -100 0 0
        vertex -80.4213 9.59719 -17.0596
    endloop
endfacet
facet normal -0.898964 0.438001 -0.00430268
    outer loop
        vertex -9.59716 80.4212 17.0597
        vertex 0 99.9 -5.2
        vertex -8.30846 82.5059 -39.9753
    endloop
endfacet
facet normal -0.0921361 0.813384 0.574385
    outer loop
        vertex -37.8221 7.62227 84.3234
        vertex -10.5 0 99.5
        vertex 6.87793 6.08512 93.6704
    endloop
endfacet
facet normal 0.898964 -0.438001 -0.00430268
    outer loop
        vertex 9.59716 -80.4212 17.0597
        vertex 0 -99.9 -5.2
        vertex 8.30846 -82.5059 -39.9753
    endloop
endfacet
facet normal 0.0921361 -0.813384 0.574385
    outer loop
        vertex 37.8221 -7.62227 84.3234
        vertex 10.5 0 99.5
        vertex -6.87793 -6.08512 93.6704
    endloop
endfacet
facet normal 0.860206 -0.35251 -0.368487
    outer loop
        vertex 8.30846 -82.5059 -39.9753
        vertex 0 -66.9 -74.3
        vertex 7.62229 -37.8221 -84.3234
    endloop
endfacet
facet normal 0.707123 0.671075 -0.222792
    outer loop
        vertex 11.931 87.4459 -10.5788
        vertex 47.3432 44.0589 -28.8703
        vertex 6.38179 81.5658 -45.9031
    endloop
endfacet
facet normal 0.707135 0.0532131 -0.705073
    outer loop
        vertex 6.08514 6.87792 -93.6704
        vertex 0 5.2 -99.9
        vertex 0 10.5 -99.5
    endloop
endfacet
facet normal -0.860206 0.35251 -0.368487
    outer loop
        vertex -8.30846 82.5059 -39.9753
        vertex 0 66.9 -74.3
        vertex -7.62229 37.8221 -84.3234
    endloop
endfacet
facet normal -0.707123 -0.671075 -0.222792
    outer loop
        vertex -11.931 -87.4459 -10.5788
        vertex -47.3432 -44.0589 -28.8703
        vertex -6.38179 -81.5658 -45.9031
    endloop
endfacet
facet normal -0.707135 -0.0532131 -0.705073
    outer loop
        vertex -6.08514 -6.87792 -93.6704
        vertex 0 -5.2 -99.9
        vertex 0 -10.5 -99.5
    endloop
endfacet
facet normal -0.434258 0.90075 0.00835112
    outer loop
        vertex -80.4213 9.59719 -17.0596
        vertex -100 0 0
        vertex -99.9 0 5.2
    endloop
endfacet
facet normal 0.419374 0.817983 0.393738
    outer loop
        vertex 47.798 7.90617 78.7026
        vertex 74.3 0 66.9
        vertex 81.5658 6.38178 45.9031
    endloop
endfacet
facet normal 0.0532131 0.707135 0.705073
    outer loop
        vertex 6.87793 6.08512 93.6704
        vertex 5.2 0 99.9
        vertex 10.5 0 99.5
    endloop
endfacet
facet normal 0.434258 -0.90075 0.00835112
    outer loop
        vertex 80.4213 -9.59719 -17.0596
        vertex 100 0 0
        vertex 99.9 0 5.2
    endloop
endfacet
facet normal -0.419374 -0.817983 0.393738
    outer loop
        vertex -47.798 -7.90617 78.7026
        vertex -74.3 0 66.9
        vertex -81.5658 -6.38178 45.9031
    endloop
endfacet
facet normal -0.0532131 -0.707135 0.705073
    outer loop
        vertex -6.87793 -6.08512 93.6704
        vertex -5.2 0 99.9
        vertex -10.5 0 99.5
    endloop
endfacet
facet normal 0.715465 -0.646843 -0.264017
    outer loop
        vertex 8.30846 -82.5059 -39.9753
        vertex 0 -93.4 -35.8
        vertex 0 -91.4 -40.7
    endloop
endfacet
facet normal -0.715465 0.646843 -0.264017
    outer loop
        vertex -8.30846 82.5059 -39.9753
        vertex 0 93.4 -35.8
        vertex 0 91.4 -40.7
    endloop
endfacet
facet normal -0.646842 0.715465 0.264017
    outer loop
        vertex -82.5059 8.30844 39.9753
        vertex -93.4 0 35.8
        vertex -91.4 0 40.7
    endloop
endfacet
facet normal 0.646842 -0.715465 0.264017
    outer loop
        vertex 82.5059 -8.30844 39.9753
        vertex 93.4 0 35.8
        vertex 91.4 0 40.7
    endloop
endfacet
facet normal 0.753941 0.248256 -0.608228
    outer loop
        vertex 7.9062 47.798 -78.7026
        vertex 0 35.8 -93.4
        vertex 0 40.7 -91.4
    endloop
endfacet
facet normal -0.753941 -0.248256 -0.608228
    outer loop
        vertex -7.9062 -47.798 -78.7026
        vertex 0 -35.8 -93.4
        vertex 0 -40.7 -91.4
    endloop
endfacet
facet normal 0.248256 0.753941 0.608228
    outer loop
        vertex 47.798 7.90617 78.7026
        vertex 35.8 0 93.4
        vertex 40.7 0 91.4
    endloop
endfacet
facet normal -0.248256 -0.753941 0.608228
    outer loop
        vertex -47.798 -7.90617 78.7026
        vertex -35.8 0 93.4
        vertex -40.7 0 91.4
    endloop
endfacet
facet normal 0.715894 -0.333404 -0.613463
    outer loop
        vertex 7.62229 -37.8221 -84.3234
        vertex 0 -50 -86.6
        vertex 0 -45.4 -89.1
    endloop
endfacet
facet normal 0.706981 0.621391 -0.337713
    outer loop
        vertex 6.38179 81.5658 -45.9031
        vertex 0 86.6 -50
        vertex 0 89.1 -45.4
    endloop
endfacet
facet normal -0.715894 0.333404 -0.613463
    outer loop
        vertex -7.62229 37.8221 -84.3234
        vertex 0 50 -86.6
        vertex 0 45.4 -89.1
    endloop
endfacet
facet normal -0.706981 -0.621391 -0.337713
    outer loop
        vertex -6.38179 -81.5658 -45.9031
        vertex 0 -86.6 -50
        vertex 0 -89.1 -45.4
    endloop
endfacet
facet normal -0.333404 0.715894 0.613463
    outer loop
        vertex -37.8221 7.62227 84.3234
        vertex -50 0 86.6
        vertex -45.4 0 89.1
    endloop
endfacet
facet normal 0.621391 0.706981 0.337713
    outer loop
        vertex 81.5658 6.38178 45.9031
        vertex 86.6 0 50
        vertex 89.1 0 45.4
    endloop
endfacet
facet normal 0.333404 -0.715894 0.613463
    outer loop
        vertex 37.8221 -7.62227 84.3234
        vertex 50 0 86.6
        vertex 45.4 0 89.1
    endloop
endfacet
facet normal -0.621391 -0.706981 0.337713
    outer loop
        vertex -81.5658 -6.38178 45.9031
        vertex -86.6 0 50
        vertex -89.1 0 45.4
    endloop
endfacet
facet normal 0.721159 0.674354 -0.158671
    outer loop
        vertex 0 96.6 -25.9
        vertex 0 97.8 -20.8
        vertex 11.931 87.4459 -10.5788
    endloop
endfacet
facet normal 0.707119 0.700526 -0.0961507
    outer loop
        vertex 11.931 87.4459 -10.5788
        vertex 0 98.8 -15.6
        vertex 0 99.5 -10.5
    endloop
endfacet
facet normal -0.721159 -0.674354 -0.158671
    outer loop
        vertex 0 -96.6 -25.9
        vertex 0 -97.8 -20.8
        vertex -11.931 -87.4459 -10.5788
    endloop
endfacet
facet normal -0.707119 -0.700526 -0.0961507
    outer loop
        vertex -11.931 -87.4459 -10.5788
        vertex 0 -98.8 -15.6
        vertex 0 -99.5 -10.5
    endloop
endfacet
facet normal 0.7764 0.630185 0.00831719
    outer loop
        vertex 44.0589 47.3431 28.8704
        vertex 47.3432 44.0589 -28.8703
        vertex 11.931 87.4459 -10.5788
    endloop
endfacet
facet normal 0.700526 0.707119 0.0961507
    outer loop
        vertex 87.4459 11.931 10.5788
        vertex 98.8 0 15.6
        vertex 99.5 0 10.5
    endloop
endfacet
facet normal -0.7764 -0.630185 0.00831719
    outer loop
        vertex -44.0589 -47.3431 28.8704
        vertex -47.3432 -44.0589 -28.8703
        vertex -11.931 -87.4459 -10.5788
    endloop
endfacet
facet normal -0.700526 -0.707119 0.0961507
    outer loop
        vertex -87.4459 -11.931 10.5788
        vertex -98.8 0 15.6
        vertex -99.5 0 10.5
    endloop
endfacet
facet normal 0.769892 -0.365151 -0.523384
    outer loop
        vertex 7.62229 -37.8221 -84.3234
        vertex 0 -58.8 -80.9
        vertex 0 -54.5 -83.9
    endloop
endfacet
facet normal 0.730842 0.559775 -0.39054
    outer loop
        vertex 6.38179 81.5658 -45.9031
        vertex 0 80.9 -58.8
        vertex 0 83.9 -54.5
    endloop
endfacet
facet normal -0.769892 0.365151 -0.523384
    outer loop
        vertex -7.62229 37.8221 -84.3234
        vertex 0 58.8 -80.9
        vertex 0 54.5 -83.9
    endloop
endfacet
facet normal -0.730842 -0.559775 -0.39054
    outer loop
        vertex -6.38179 -81.5658 -45.9031
        vertex 0 -80.9 -58.8
        vertex 0 -83.9 -54.5
    endloop
endfacet
facet normal -0.365151 0.769892 0.523384
    outer loop
        vertex -37.8221 7.62227 84.3234
        vertex -58.8 0 80.9
        vertex -54.5 0 83.9
    endloop
endfacet
facet normal 0.559775 0.730842 0.39054
    outer loop
        vertex 81.5658 6.38178 45.9031
        vertex 80.9 0 58.8
        vertex 83.9 0 54.5
    endloop
endfacet
facet normal 0.365151 -0.769892 0.523384
    outer loop
        vertex 37.8221 -7.62227 84.3234
        vertex 58.8 0 80.9
        vertex 54.5 0 83.9
    endloop
endfacet
facet normal -0.559775 -0.730842 0.39054
    outer loop
        vertex -81.5658 -6.38178 45.9031
        vertex -80.9 0 58.8
        vertex -83.9 0 54.5
    endloop
endfacet
facet normal 0.834038 -0.400514 -0.379434
    outer loop
        vertex 8.30846 -82.5059 -39.9753
        vertex 0 -74.3 -66.9
        vertex 0 -70.7 -70.7
    endloop
endfacet
facet normal 0.782663 0.428084 -0.451866
    outer loop
        vertex 7.9062 47.798 -78.7026
        vertex 0 66.9 -74.3
        vertex 0 70.7 -70.7
    endloop
endfacet
facet normal -0.834038 0.400514 -0.379434
    outer loop
        vertex -8.30846 82.5059 -39.9753
        vertex 0 74.3 -66.9
        vertex 0 70.7 -70.7
    endloop
endfacet
facet normal -0.782663 -0.428084 -0.451866
    outer loop
        vertex -7.9062 -47.798 -78.7026
        vertex 0 -66.9 -74.3
        vertex 0 -70.7 -70.7
    endloop
endfacet
facet normal -0.400514 0.834038 0.379434
    outer loop
        vertex -82.5059 8.30844 39.9753
        vertex -74.3 0 66.9
        vertex -70.7 0 70.7
    endloop
endfacet
facet normal 0.428084 0.782663 0.451866
    outer loop
        vertex 47.798 7.90617 78.7026
        vertex 66.9 0 74.3
        vertex 70.7 0 70.7
    endloop
endfacet
facet normal 0.400514 -0.834038 0.379434
    outer loop
        vertex 82.5059 -8.30844 39.9753
        vertex 74.3 0 66.9
        vertex 70.7 0 70.7
    endloop
endfacet
facet normal -0.428084 -0.782663 0.451866
    outer loop
        vertex -47.798 -7.90617 78.7026
        vertex -66.9 0 74.3
        vertex -70.7 0 70.7
    endloop
endfacet
facet normal 0.737874 -0.193942 -0.646474
    outer loop
        vertex 7.62229 -37.8221 -84.3234
        vertex 0 -30.9 -95.1
        vertex 0 -25.9 -96.6
    endloop
endfacet
facet normal 0.764136 0.147743 -0.627907
    outer loop
        vertex 6.08514 6.87792 -93.6704
        vertex 0 20.8 -97.8
        vertex 0 25.9 -96.6
    endloop
endfacet
facet normal -0.737874 0.193942 -0.646474
    outer loop
        vertex -7.62229 37.8221 -84.3234
        vertex 0 30.9 -95.1
        vertex 0 25.9 -96.6
    endloop
endfacet
facet normal -0.764136 -0.147743 -0.627907
    outer loop
        vertex -6.08514 -6.87792 -93.6704
        vertex 0 -20.8 -97.8
        vertex 0 -25.9 -96.6
    endloop
endfacet
facet normal -0.193942 0.737874 0.646474
    outer loop
        vertex -37.8221 7.62227 84.3234
        vertex -30.9 0 95.1
        vertex -25.9 0 96.6
    endloop
endfacet
facet normal 0.147743 0.764136 0.627907
    outer loop
        vertex 6.87793 6.08512 93.6704
        vertex 20.8 0 97.8
        vertex 25.9 0 96.6
    endloop
endfacet
facet normal 0.193942 -0.737874 0.646474
    outer loop
        vertex 37.8221 -7.62227 84.3234
        vertex 30.9 0 95.1
        vertex 25.9 0 96.6
    endloop
endfacet
facet normal -0.147743 -0.764136 0.627907
    outer loop
        vertex -6.87793 -6.08512 93.6704
        vertex -20.8 0 97.8
        vertex -25.9 0 96.6
    endloop
endfacet
facet normal 0.687636 0.521612 -0.505052
    outer loop
        vertex 6.38179 81.5658 -45.9031
        vertex 47.3432 44.0589 -28.8703
        vertex 7.9062 47.798 -78.7026
    endloop
endfacet
facet normal -0.687636 -0.521612 -0.505052
    outer loop
        vertex -6.38179 -81.5658 -45.9031
        vertex -47.3432 -44.0589 -28.8703
        vertex -7.9062 -47.798 -78.7026
    endloop
endfacet
facet normal 0.671075 0.707123 0.222792
    outer loop
        vertex 87.4459 11.931 10.5788
        vertex 44.0589 47.3431 28.8704
        vertex 81.5658 6.38178 45.9031
    endloop
endfacet
facet normal -0.671075 -0.707123 0.222792
    outer loop
        vertex -87.4459 -11.931 10.5788
        vertex -44.0589 -47.3431 28.8704
        vertex -81.5658 -6.38178 45.9031
    endloop
endfacet
facet normal 0.784067 -0.604177 -0.142159
    outer loop
        vertex 8.30846 -82.5059 -39.9753
        vertex 0 -97.8 -20.8
        vertex 0 -96.6 -25.9
    endloop
endfacet
facet normal 0.808201 0.169221 -0.56407
    outer loop
        vertex 0 25.9 -96.6
        vertex 0 30.9 -95.1
        vertex 7.9062 47.798 -78.7026
    endloop
endfacet
facet normal -0.784067 0.604177 -0.142159
    outer loop
        vertex -8.30846 82.5059 -39.9753
        vertex 0 97.8 -20.8
        vertex 0 96.6 -25.9
    endloop
endfacet
facet normal -0.808201 -0.169221 -0.56407
    outer loop
        vertex 0 -25.9 -96.6
        vertex 0 -30.9 -95.1
        vertex -7.9062 -47.798 -78.7026
    endloop
endfacet
facet normal -0.604177 0.784067 0.142159
    outer loop
        vertex -82.5059 8.30844 39.9753
        vertex -97.8 0 20.8
        vertex -96.6 0 25.9
    endloop
endfacet
facet normal 0.169221 0.808201 0.56407
    outer loop
        vertex 25.9 0 96.6
        vertex 30.9 0 95.1
        vertex 47.798 7.90617 78.7026
    endloop
endfacet
facet normal 0.604177 -0.784067 0.142159
    outer loop
        vertex 82.5059 -8.30844 39.9753
        vertex 97.8 0 20.8
        vertex 96.6 0 25.9
    endloop
endfacet
facet normal -0.169221 -0.808201 0.56407
    outer loop
        vertex -25.9 0 96.6
        vertex -30.9 0 95.1
        vertex -47.798 -7.90617 78.7026
    endloop
endfacet
facet normal 0.669942 -0.249225 -0.699331
    outer loop
        vertex 41.4017 -38.4925 -44.1418
        vertex 37.2259 2.4338 -62.7273
        vertex 80.4213 -9.59719 -17.0596
    endloop
endfacet
facet normal 0.71347 0.0134722 -0.700557
    outer loop
        vertex 6.08514 6.87792 -93.6704
        vertex 0 0 -100
        vertex 0 5.2 -99.9
    endloop
endfacet
facet normal -0.669942 0.249225 -0.699331
    outer loop
        vertex -41.4017 38.4925 -44.1418
        vertex -37.2259 -2.4338 -62.7273
        vertex -80.4213 9.59719 -17.0596
    endloop
endfacet
facet normal -0.71347 -0.0134722 -0.700557
    outer loop
        vertex -6.08514 -6.87792 -93.6704
        vertex 0 0 -100
        vertex 0 -5.2 -99.9
    endloop
endfacet
facet normal -0.438003 0.898963 0.00430405
    outer loop
        vertex -80.4213 9.59719 -17.0596
        vertex -99.9 0 5.2
        vertex -82.5059 8.30844 39.9753
    endloop
endfacet
facet normal 0.0134722 0.71347 0.700557
    outer loop
        vertex 6.87793 6.08512 93.6704
        vertex 0 0 100
        vertex 5.2 0 99.9
    endloop
endfacet
facet normal 0.438003 -0.898963 0.00430405
    outer loop
        vertex 80.4213 -9.59719 -17.0596
        vertex 99.9 0 5.2
        vertex 82.5059 -8.30844 39.9753
    endloop
endfacet
facet normal -0.0134722 -0.71347 0.700557
    outer loop
        vertex -6.87793 -6.08512 93.6704
        vertex 0 0 100
        vertex -5.2 0 99.9
    endloop
endfacet
facet normal 0.364496 -0.826594 0.428818
    outer loop
        vertex 66.9 0 74.3
        vertex 62.9 0 77.7
        vertex 37.8221 -7.62227 84.3234
    endloop
endfacet
facet normal 0.751898 0.426982 -0.502331
    outer loop
        vertex 7.9062 47.798 -78.7026
        vertex 0 62.9 -77.7
        vertex 0 66.9 -74.3
    endloop
endfacet
facet normal -0.364496 0.826594 0.428818
    outer loop
        vertex -66.9 0 74.3
        vertex -62.9 0 77.7
        vertex -37.8221 7.62227 84.3234
    endloop
endfacet
facet normal -0.751898 -0.426982 -0.502331
    outer loop
        vertex -7.9062 -47.798 -78.7026
        vertex 0 -62.9 -77.7
        vertex 0 -66.9 -74.3
    endloop
endfacet
facet normal -0.900751 0.434255 -0.00835106
    outer loop
        vertex -9.59716 80.4212 17.0597
        vertex 0 100 0
        vertex 0 99.9 -5.2
    endloop
endfacet
facet normal 0.426981 0.751898 0.502331
    outer loop
        vertex 47.798 7.90617 78.7026
        vertex 62.9 0 77.7
        vertex 66.9 0 74.3
    endloop
endfacet
facet normal 0.900751 -0.434255 -0.00835106
    outer loop
        vertex 9.59716 -80.4212 17.0597
        vertex 0 -100 0
        vertex 0 -99.9 -5.2
    endloop
endfacet
facet normal -0.426981 -0.751898 0.502331
    outer loop
        vertex -47.798 -7.90617 78.7026
        vertex -62.9 0 77.7
        vertex -66.9 0 74.3
    endloop
endfacet
facet normal 0.802766 -0.45434 -0.386189
    outer loop
        vertex 8.30846 -82.5059 -39.9753
        vertex 0 -77.7 -62.9
        vertex 0 -74.3 -66.9
    endloop
endfacet
facet normal 0.630185 0.7764 -0.00831594
    outer loop
        vertex 47.3432 44.0589 -28.8703
        vertex 44.0589 47.3431 28.8704
        vertex 87.4459 11.931 10.5788
    endloop
endfacet
facet normal -0.802766 0.45434 -0.386189
    outer loop
        vertex -8.30846 82.5059 -39.9753
        vertex 0 77.7 -62.9
        vertex 0 74.3 -66.9
    endloop
endfacet
facet normal -0.630185 -0.7764 -0.00831594
    outer loop
        vertex -47.3432 -44.0589 -28.8703
        vertex -44.0589 -47.3431 28.8704
        vertex -87.4459 -11.931 10.5788
    endloop
endfacet
facet normal -0.45434 0.802766 0.386189
    outer loop
        vertex -82.5059 8.30844 39.9753
        vertex -77.7 0 62.9
        vertex -74.3 0 66.9
    endloop
endfacet
facet normal -0.0488915 0.76023 0.647812
    outer loop
        vertex -10.5 0 99.5
        vertex -5.2 0 99.9
        vertex 6.87793 6.08512 93.6704
    endloop
endfacet
facet normal 0.45434 -0.802766 0.386189
    outer loop
        vertex 82.5059 -8.30844 39.9753
        vertex 77.7 0 62.9
        vertex 74.3 0 66.9
    endloop
endfacet
facet normal 0.0488915 -0.76023 0.647812
    outer loop
        vertex 10.5 0 99.5
        vertex 5.2 0 99.9
        vertex -6.87793 -6.08512 93.6704
    endloop
endfacet
facet normal 0.731887 -0.643782 -0.223353
    outer loop
        vertex 8.30846 -82.5059 -39.9753
        vertex 0 -95.1 -30.9
        vertex 0 -93.4 -35.8
    endloop
endfacet
facet normal 0.783017 0.203875 -0.587639
    outer loop
        vertex 7.9062 47.798 -78.7026
        vertex 0 30.9 -95.1
        vertex 0 35.8 -93.4
    endloop
endfacet
facet normal -0.731887 0.643782 -0.223353
    outer loop
        vertex -8.30846 82.5059 -39.9753
        vertex 0 95.1 -30.9
        vertex 0 93.4 -35.8
    endloop
endfacet
facet normal -0.783017 -0.203875 -0.587639
    outer loop
        vertex -7.9062 -47.798 -78.7026
        vertex 0 -30.9 -95.1
        vertex 0 -35.8 -93.4
    endloop
endfacet
facet normal -0.643782 0.731887 0.223353
    outer loop
        vertex -82.5059 8.30844 39.9753
        vertex -95.1 0 30.9
        vertex -93.4 0 35.8
    endloop
endfacet
facet normal 0.203875 0.783017 0.587639
    outer loop
        vertex 47.798 7.90617 78.7026
        vertex 30.9 0 95.1
        vertex 35.8 0 93.4
    endloop
endfacet
facet normal 0.643782 -0.731887 0.223353
    outer loop
        vertex 82.5059 -8.30844 39.9753
        vertex 95.1 0 30.9
        vertex 93.4 0 35.8
    endloop
endfacet
facet normal -0.203875 -0.783017 0.587639
    outer loop
        vertex -47.798 -7.90617 78.7026
        vertex -30.9 0 95.1
        vertex -35.8 0 93.4
    endloop
endfacet
facet normal 0.795877 -0.114339 -0.594565
    outer loop
        vertex 7.62229 -37.8221 -84.3234
        vertex 0 -20.8 -97.8
        vertex 0 -15.6 -98.8
    endloop
endfacet
facet normal 0.694394 -0.651691 -0.30515
    outer loop
        vertex 80.4213 -9.59719 -17.0596
        vertex 50 -50 8.76513e-05
        vertex 41.4017 -38.4925 -44.1418
    endloop
endfacet
facet normal 0.712005 0.689539 -0.132604
    outer loop
        vertex 11.931 87.4459 -10.5788
        vertex 0 97.8 -20.8
        vertex 0 98.8 -15.6
    endloop
endfacet
facet normal 0.420607 0.815053 0.39847
    outer loop
        vertex 47.798 7.90617 78.7026
        vertex 70.7 0 70.7
        vertex 74.3 0 66.9
    endloop
endfacet
facet normal -0.795877 0.114339 -0.594565
    outer loop
        vertex -7.62229 37.8221 -84.3234
        vertex 0 20.8 -97.8
        vertex 0 15.6 -98.8
    endloop
endfacet
facet normal -0.694394 0.651691 -0.30515
    outer loop
        vertex -80.4213 9.59719 -17.0596
        vertex -50 50 8.76513e-05
        vertex -41.4017 38.4925 -44.1418
    endloop
endfacet
facet normal -0.712005 -0.689539 -0.132604
    outer loop
        vertex -11.931 -87.4459 -10.5788
        vertex 0 -97.8 -20.8
        vertex 0 -98.8 -15.6
    endloop
endfacet
facet normal -0.420607 -0.815053 0.39847
    outer loop
        vertex -47.798 -7.90617 78.7026
        vertex -70.7 0 70.7
        vertex -74.3 0 66.9
    endloop
endfacet
facet normal -0.114339 0.795877 0.594564
    outer loop
        vertex -37.8221 7.62227 84.3234
        vertex -20.8 0 97.8
        vertex -15.6 0 98.8
    endloop
endfacet
facet normal -0.651689 0.694394 0.305152
    outer loop
        vertex -9.59716 80.4212 17.0597
        vertex -50 50 8.76513e-05
        vertex -38.4925 41.4016 44.1419
    endloop
endfacet
facet normal 0.689539 0.712005 0.132604
    outer loop
        vertex 87.4459 11.931 10.5788
        vertex 97.8 0 20.8
        vertex 98.8 0 15.6
    endloop
endfacet
facet normal 0.114339 -0.795877 0.594564
    outer loop
        vertex 37.8221 -7.62227 84.3234
        vertex 20.8 0 97.8
        vertex 15.6 0 98.8
    endloop
endfacet
facet normal 0.651689 -0.694394 0.305152
    outer loop
        vertex 9.59716 -80.4212 17.0597
        vertex 50 -50 8.76513e-05
        vertex 38.4925 -41.4016 44.1419
    endloop
endfacet
facet normal -0.689539 -0.712005 0.132604
    outer loop
        vertex -87.4459 -11.931 10.5788
        vertex -97.8 0 20.8
        vertex -98.8 0 15.6
    endloop
endfacet
facet normal 0.721933 -0.593353 -0.356012
    outer loop
        vertex 8.30846 -82.5059 -39.9753
        vertex 0 -86.6 -50
        vertex 0 -83.9 -54.5
    endloop
endfacet
facet normal 0.707049 0.363833 -0.606389
    outer loop
        vertex 7.9062 47.798 -78.7026
        vertex 0 50 -86.6
        vertex 0 54.5 -83.9
    endloop
endfacet
facet normal -0.721933 0.593353 -0.356012
    outer loop
        vertex -8.30846 82.5059 -39.9753
        vertex 0 86.6 -50
        vertex 0 83.9 -54.5
    endloop
endfacet
facet normal -0.707049 -0.363833 -0.606389
    outer loop
        vertex -7.9062 -47.798 -78.7026
        vertex 0 -50 -86.6
        vertex 0 -54.5 -83.9
    endloop
endfacet
facet normal -0.593353 0.721933 0.356012
    outer loop
        vertex -82.5059 8.30844 39.9753
        vertex -86.6 0 50
        vertex -83.9 0 54.5
    endloop
endfacet
facet normal 0.363833 0.707049 0.606389
    outer loop
        vertex 47.798 7.90617 78.7026
        vertex 50 0 86.6
        vertex 54.5 0 83.9
    endloop
endfacet
facet normal 0.593353 -0.721933 0.356012
    outer loop
        vertex 82.5059 -8.30844 39.9753
        vertex 86.6 0 50
        vertex 83.9 0 54.5
    endloop
endfacet
facet normal -0.363833 -0.707049 0.606389
    outer loop
        vertex -47.798 -7.90617 78.7026
        vertex -50 0 86.6
        vertex -54.5 0 83.9
    endloop
endfacet
facet normal 0.716043 0.627005 -0.306832
    outer loop
        vertex 6.38179 81.5658 -45.9031
        vertex 0 89.1 -45.4
        vertex 0 91.4 -40.7
    endloop
endfacet
facet normal -0.716043 -0.627005 -0.306832
    outer loop
        vertex -6.38179 -81.5658 -45.9031
        vertex 0 -89.1 -45.4
        vertex 0 -91.4 -40.7
    endloop
endfacet
facet normal 0.627005 0.716044 0.306832
    outer loop
        vertex 81.5658 6.38178 45.9031
        vertex 89.1 0 45.4
        vertex 91.4 0 40.7
    endloop
endfacet
facet normal -0.627005 -0.716044 0.306832
    outer loop
        vertex -81.5658 -6.38178 45.9031
        vertex -89.1 0 45.4
        vertex -91.4 0 40.7
    endloop
endfacet
facet normal 0.70706 -0.310831 -0.635177
    outer loop
        vertex 7.62229 -37.8221 -84.3234
        vertex 0 -45.4 -89.1
        vertex 0 -40.7 -91.4
    endloop
endfacet
facet normal -0.70706 0.310831 -0.635177
    outer loop
        vertex -7.62229 37.8221 -84.3234
        vertex 0 45.4 -89.1
        vertex 0 40.7 -91.4
    endloop
endfacet
facet normal -0.310831 0.70706 0.635177
    outer loop
        vertex -37.8221 7.62227 84.3234
        vertex -45.4 0 89.1
        vertex -40.7 0 91.4
    endloop
endfacet
facet normal 0.310831 -0.70706 0.635177
    outer loop
        vertex 37.8221 -7.62227 84.3234
        vertex 45.4 0 89.1
        vertex 40.7 0 91.4
    endloop
endfacet
facet normal 0.801278 -0.368112 -0.471643
    outer loop
        vertex 7.62229 -37.8221 -84.3234
        vertex 0 -62.9 -77.7
        vertex 0 -58.8 -80.9
    endloop
endfacet
facet normal 0.757731 0.514429 -0.401505
    outer loop
        vertex 6.38179 81.5658 -45.9031
        vertex 0 77.7 -62.9
        vertex 0 80.9 -58.8
    endloop
endfacet
facet normal -0.801278 0.368112 -0.471643
    outer loop
        vertex -7.62229 37.8221 -84.3234
        vertex 0 62.9 -77.7
        vertex 0 58.8 -80.9
    endloop
endfacet
facet normal -0.757731 -0.514429 -0.401505
    outer loop
        vertex -6.38179 -81.5658 -45.9031
        vertex 0 -77.7 -62.9
        vertex 0 -80.9 -58.8
    endloop
endfacet
facet normal -0.368112 0.801278 0.471643
    outer loop
        vertex -37.8221 7.62227 84.3234
        vertex -62.9 0 77.7
        vertex -58.8 0 80.9
    endloop
endfacet
facet normal 0.514428 0.757731 0.401505
    outer loop
        vertex 81.5658 6.38178 45.9031
        vertex 77.7 0 62.9
        vertex 80.9 0 58.8
    endloop
endfacet
facet normal 0.368112 -0.801278 0.471643
    outer loop
        vertex 37.8221 -7.62227 84.3234
        vertex 62.9 0 77.7
        vertex 58.8 0 80.9
    endloop
endfacet
facet normal -0.514428 -0.757731 0.401505
    outer loop
        vertex -81.5658 -6.38178 45.9031
        vertex -77.7 0 62.9
        vertex -80.9 0 58.8
    endloop
endfacet
facet normal 0.756423 0.615513 -0.221288
    outer loop
        vertex 6.38179 81.5658 -45.9031
        vertex 0 96.6 -25.9
        vertex 11.931 87.4459 -10.5788
    endloop
endfacet
facet normal -0.756423 -0.615513 -0.221288
    outer loop
        vertex -6.38179 -81.5658 -45.9031
        vertex 0 -96.6 -25.9
        vertex -11.931 -87.4459 -10.5788
    endloop
endfacet
facet normal -0.0759473 0.829492 0.553331
    outer loop
        vertex -37.8221 7.62227 84.3234
        vertex -15.6 0 98.8
        vertex -10.5 0 99.5
    endloop
endfacet
facet normal 0.0759473 -0.829492 0.553331
    outer loop
        vertex 37.8221 -7.62227 84.3234
        vertex 15.6 0 98.8
        vertex 10.5 0 99.5
    endloop
endfacet
facet normal 0.59127 -0.748613 0.299962
    outer loop
        vertex 82.5059 -8.30844 39.9753
        vertex 38.4925 -41.4016 44.1419
        vertex 50 -50 8.76513e-05
    endloop
endfacet
facet normal -0.59127 0.748613 0.299962
    outer loop
        vertex -82.5059 8.30844 39.9753
        vertex -38.4925 41.4016 44.1419
        vertex -50 50 8.76513e-05
    endloop
endfacet
facet normal -0.489952 0.870965 0.0369775
    outer loop
        vertex -99.9 0 5.2
        vertex -99.5 0 10.5
        vertex -82.5059 8.30844 39.9753
    endloop
endfacet
facet normal 0.489952 -0.870965 0.0369775
    outer loop
        vertex 99.9 0 5.2
        vertex 99.5 0 10.5
        vertex 82.5059 -8.30844 39.9753
    endloop
endfacet
facet normal 0.761421 0.287514 -0.581011
    outer loop
        vertex 7.9062 47.798 -78.7026
        vertex 47.3432 44.0589 -28.8703
        vertex 37.2259 2.4338 -62.7273
    endloop
endfacet
facet normal -0.761421 -0.287514 -0.581011
    outer loop
        vertex -7.9062 -47.798 -78.7026
        vertex -47.3432 -44.0589 -28.8703
        vertex -37.2259 -2.4338 -62.7273
    endloop
endfacet
facet normal 0.74658 -0.210437 -0.631137
    outer loop
        vertex 7.62229 -37.8221 -84.3234
        vertex 37.2259 2.4338 -62.7273
        vertex 41.4017 -38.4925 -44.1418
    endloop
endfacet
facet normal 0.375719 0.785206 0.492226
    outer loop
        vertex -9.59716 80.4212 17.0597
        vertex 44.0589 47.3431 28.8704
        vertex 11.931 87.4459 -10.5788
    endloop
endfacet
facet normal 0.760229 -0.0488915 -0.647812
    outer loop
        vertex 0 -10.5 -99.5
        vertex 0 -5.2 -99.9
        vertex 6.08514 6.87792 -93.6704
    endloop
endfacet
facet normal -0.74658 0.210437 -0.631137
    outer loop
        vertex -7.62229 37.8221 -84.3234
        vertex -37.2259 -2.4338 -62.7273
        vertex -41.4017 38.4925 -44.1418
    endloop
endfacet
facet normal -0.375719 -0.785206 0.492226
    outer loop
        vertex 9.59716 -80.4212 17.0597
        vertex -44.0589 -47.3431 28.8704
        vertex -11.931 -87.4459 -10.5788
    endloop
endfacet
facet normal -0.760229 0.0488915 -0.647812
    outer loop
        vertex 0 10.5 -99.5
        vertex 0 5.2 -99.9
        vertex -6.08514 -6.87792 -93.6704
    endloop
endfacet
facet normal 0.287514 0.761421 0.581011
    outer loop
        vertex 47.798 7.90617 78.7026
        vertex 44.0589 47.3431 28.8704
        vertex 2.43384 37.2258 62.7274
    endloop
endfacet
facet normal -0.210437 0.74658 0.631138
    outer loop
        vertex -37.8221 7.62227 84.3234
        vertex 2.43384 37.2258 62.7274
        vertex -38.4925 41.4016 44.1419
    endloop
endfacet
facet normal 0.56855 0.804773 0.170565
    outer loop
        vertex 81.5658 6.38178 45.9031
        vertex 95.1 0 30.9
        vertex 96.6 0 25.9
    endloop
endfacet
facet normal 0.729414 0.31614 -0.60664
    outer loop
        vertex 80.4213 -9.59719 -17.0596
        vertex 37.2259 2.4338 -62.7273
        vertex 47.3432 44.0589 -28.8703
    endloop
endfacet
facet normal -0.287514 -0.761421 0.581011
    outer loop
        vertex -47.798 -7.90617 78.7026
        vertex -44.0589 -47.3431 28.8704
        vertex -2.43384 -37.2258 62.7274
    endloop
endfacet
facet normal 0.210437 -0.74658 0.631138
    outer loop
        vertex 37.8221 -7.62227 84.3234
        vertex -2.43384 -37.2258 62.7274
        vertex 38.4925 -41.4016 44.1419
    endloop
endfacet
facet normal -0.56855 -0.804773 0.170565
    outer loop
        vertex -81.5658 -6.38178 45.9031
        vertex -95.1 0 30.9
        vertex -96.6 0 25.9
    endloop
endfacet
facet normal -0.729414 -0.31614 -0.60664
    outer loop
        vertex -80.4213 9.59719 -17.0596
        vertex -37.2259 -2.4338 -62.7273
        vertex -47.3432 -44.0589 -28.8703
    endloop
endfacet
facet normal 0.817983 0.419374 -0.393738
    outer loop
        vertex 7.9062 47.798 -78.7026
        vertex 0 74.3 -66.9
        vertex 6.38179 81.5658 -45.9031
    endloop
endfacet
facet normal -0.817983 -0.419374 -0.393738
    outer loop
        vertex -7.9062 -47.798 -78.7026
        vertex 0 -74.3 -66.9
        vertex -6.38179 -81.5658 -45.9031
    endloop
endfacet
facet normal 0.31614 0.729413 0.60664
    outer loop
        vertex -9.59716 80.4212 17.0597
        vertex 2.43384 37.2258 62.7274
        vertex 44.0589 47.3431 28.8704
    endloop
endfacet
facet normal -0.31614 -0.729413 0.60664
    outer loop
        vertex 9.59716 -80.4212 17.0597
        vertex -2.43384 -37.2258 62.7274
        vertex -44.0589 -47.3431 28.8704
    endloop
endfacet
facet normal 0.249224 -0.669942 0.699331
    outer loop
        vertex 38.4925 -41.4016 44.1419
        vertex -2.43384 -37.2258 62.7274
        vertex 9.59716 -80.4212 17.0597
    endloop
endfacet
facet normal 0.829492 -0.0759474 -0.553331
    outer loop
        vertex 7.62229 -37.8221 -84.3234
        vertex 0 -15.6 -98.8
        vertex 0 -10.5 -99.5
    endloop
endfacet
facet normal -0.249224 0.669942 0.699331
    outer loop
        vertex -38.4925 41.4016 44.1419
        vertex 2.43384 37.2258 62.7274
        vertex -9.59716 80.4212 17.0597
    endloop
endfacet
facet normal -0.829492 0.0759474 -0.553331
    outer loop
        vertex -7.62229 37.8221 -84.3234
        vertex 0 15.6 -98.8
        vertex 0 10.5 -99.5
    endloop
endfacet
facet normal -0.826594 0.364496 -0.428819
    outer loop
        vertex 0 66.9 -74.3
        vertex 0 62.9 -77.7
        vertex -7.62229 37.8221 -84.3234
    endloop
endfacet
facet normal 0.47289 0.784096 0.401957
    outer loop
        vertex 74.3 0 66.9
        vertex 77.7 0 62.9
        vertex 81.5658 6.38178 45.9031
    endloop
endfacet
facet normal 0.826594 -0.364496 -0.428819
    outer loop
        vertex 0 -66.9 -74.3
        vertex 0 -62.9 -77.7
        vertex 7.62229 -37.8221 -84.3234
    endloop
endfacet
facet normal -0.47289 -0.784096 0.401957
    outer loop
        vertex -74.3 0 66.9
        vertex -77.7 0 62.9
        vertex -81.5658 -6.38178 45.9031
    endloop
endfacet
endsolid surface
